<svg xmlns="http://www.w3.org/2000/svg" width="710.659" height="93.937" viewBox="0 0 710.659 93.937"><path fill="#FFF" d="M458.259 40.04l8.668 12.61h.125l8.668-12.61v19.025h1.628V37.161h-1.535l-8.792 12.956-8.794-12.956h-1.534v21.904h1.566zM496.843 56.436l-1.065-.938c-1.313 1.408-3.003 2.503-5.476 2.503-3.13 0-5.977-2.316-6.258-6.291h13.236c.032-.248.032-.342.032-.627 0-4.722-2.849-8.354-7.324-8.354-4.318 0-7.571 3.693-7.571 8.325 0 5.039 3.63 8.387 7.822 8.387 3.068.001 4.976-1.252 6.604-3.005m-6.915-12.295c3.659 0 5.506 2.971 5.724 6.194h-11.607c.28-3.535 2.721-6.194 5.883-6.194M521.375 59.065h1.878l-6.791-9.043 6.384-6.915h-1.941l-9.136 10.168V43.107h-1.534v10.168l-9.138-10.168h-1.94l6.353 6.915-6.759 9.043h1.877l5.883-7.981 3.724 4.069v3.912h1.534v-3.912l3.723-4.036zM526.101 59.066h14.551v4.504h1.25l.315-5.88h-2.568V43.108h-10.7v3.378c0 5.321-.939 8.886-2.347 11.204h-2.097v5.88h1.282l.314-4.504zm4.317-11.704v-2.878h7.698V57.69h-9.825c1.252-2.129 2.127-6.072 2.127-10.328M560.24 43.107h-1.69l-5.759 14.27-6.633-14.27h-1.784l7.668 15.865c-1.191 2.783-2.286 3.753-3.945 3.753-1.188 0-1.877-.187-2.722-.594l-.531 1.348c1.063.468 1.94.686 3.16.686 2.284 0 3.911-1.186 5.319-4.537l6.917-16.521zM576.605 59.065h1.534V43.107h-1.534v7.101h-10.609v-7.101h-1.532v15.958h1.532v-7.478h10.609zM589.747 42.855c-2.189 0-3.91.564-5.663 1.378l.563 1.346c1.473-.752 3.066-1.283 5.008-1.283 3.285 0 5.258 1.658 5.258 4.882v.687c-1.534-.408-3.069-.687-5.29-.687-4.129 0-6.977 1.876-6.977 5.194 0 3.378 2.879 5.069 6.165 5.069 3.033 0 5.006-1.503 6.103-3.036v2.66h1.501v-9.953c0-1.969-.565-3.439-1.627-4.505-1.16-1.155-2.881-1.752-5.041-1.752m5.196 10.234c0 2.91-2.786 4.913-6.04 4.913-2.754 0-4.602-1.348-4.602-3.662 0-2.284 1.848-3.787 5.227-3.787 2.284 0 4.067.375 5.415.722v1.814zM610.026 42.73c-3.161 0-5.196 1.847-6.574 3.942v-3.565h-1.531v20.965h1.531v-8.448c1.316 2.002 3.381 3.817 6.574 3.817 3.849 0 7.76-3.159 7.76-8.357 0-5.256-3.911-8.354-7.76-8.354m-.157 15.24c-3.317 0-6.509-2.754-6.509-6.854 0-4.13 3.191-6.915 6.509-6.915 3.348 0 6.26 2.69 6.26 6.883 0 4.351-2.788 6.886-6.26 6.886M629.708 42.73c-4.758 0-8.23 3.882-8.23 8.354 0 4.54 3.442 8.357 8.168 8.357 4.756 0 8.229-3.88 8.229-8.357 0-4.536-3.443-8.354-8.167-8.354m0 15.272c-3.694 0-6.572-3.069-6.572-6.918 0-3.815 2.909-6.914 6.51-6.914 3.599 0 6.57 3.066 6.57 6.914 0 3.82-2.972 6.918-6.508 6.918M654.647 43.107h-10.702v3.378c0 5.321-.938 8.887-2.349 11.204h-2.095v5.881h1.283l.312-4.505h14.553v4.505h1.251l.314-5.881h-2.567V43.107zm-1.533 14.582h-9.825c1.251-2.129 2.127-6.071 2.127-10.328v-2.878h7.698v13.206zM673.203 50.208h-10.608v-7.101h-1.533v15.958h1.533v-7.478h10.608v7.478h1.534V43.107h-1.534zM686.346 42.855c-2.19 0-3.912.564-5.664 1.378l.565 1.346c1.47-.752 3.065-1.283 5.006-1.283 3.284 0 5.257 1.658 5.257 4.882v.687c-1.534-.408-3.066-.687-5.29-.687-4.13 0-6.977 1.876-6.977 5.194 0 3.378 2.878 5.069 6.165 5.069 3.036 0 5.007-1.503 6.102-3.036v2.66h1.502v-9.953c0-1.969-.563-3.439-1.627-4.505-1.158-1.155-2.879-1.752-5.039-1.752m5.195 10.234c0 2.91-2.785 4.913-6.041 4.913-2.754 0-4.598-1.348-4.598-3.662 0-2.284 1.844-3.787 5.224-3.787 2.283 0 4.069.375 5.415.722v1.814zM703.524 43.107c-3.661 0-5.851 1.939-5.851 4.755 0 2.66 2.065 4.382 4.599 4.851l-5.037 6.352h1.877l4.757-6.132h5.258v6.132h1.532V43.107h-7.135zm5.603 8.448h-5.321c-2.565 0-4.476-1.376-4.476-3.599 0-2.096 1.629-3.473 4.413-3.473h5.384v7.072zM469.806 75.245h-2.034l-9.889 10.233V75.245h-1.533v15.959h1.533v-3.878l3.881-3.913 6.322 7.791h1.938l-7.197-8.886zM476.158 76.09c-.062 12.986-1.566 13.925-3.692 13.925-.313 0-1.001-.158-1.222-.219l-.281 1.408c.438.125 1.252.25 1.753.25 2.941 0 4.881-1.19 4.913-14.395v-.439h7.853v14.584h1.534v-15.96h-10.858v.846zM494.369 89.171V75.245h-1.533v15.96h1.533l10.828-13.928v13.928h1.534v-15.96h-1.534zM524.691 82.347h-10.607v-7.102h-1.536v15.959h1.536v-7.479h10.607v7.479h1.535V75.245h-1.535zM533.578 89.171V75.245h-1.533v15.96h1.533l10.827-13.928v13.928h1.532v-15.96h-1.532zM565.214 75.245h-2.033l-9.89 10.233V75.245h-1.534v15.959h1.534v-3.878l3.881-3.913 6.321 7.791h1.94l-7.198-8.886zM574.321 74.993c-2.191 0-3.912.564-5.664 1.379l.562 1.344c1.472-.751 3.067-1.282 5.007-1.282 3.287 0 5.258 1.659 5.258 4.882v.688c-1.533-.407-3.068-.688-5.289-.688-4.129 0-6.976 1.877-6.976 5.194 0 3.381 2.878 5.071 6.163 5.071 3.033 0 5.008-1.503 6.102-3.037v2.661h1.502v-9.951c0-1.971-.563-3.443-1.626-4.506-1.161-1.161-2.88-1.755-5.039-1.755m5.194 10.235c0 2.91-2.784 4.913-6.039 4.913-2.753 0-4.601-1.345-4.601-3.663 0-2.282 1.848-3.785 5.227-3.785 2.284 0 4.067.375 5.413.721v1.814zM364.31 26.765c-8.645 0-16.388 3.885-21.621 9.98-5.229-6.095-12.974-9.98-21.617-9.98-14.098 0-25.805 10.296-28.075 23.758-4.212-13.736-17.016-23.758-32.116-23.758-14.05 0-26.107 8.679-31.11 20.952v-14.65c0-18.495-15.023-33.025-33.506-33.067h-8.355v13.767h8.393c10.873.063 19.703 8.409 19.703 19.3v.191a33.398 33.398 0 0 0-19.818-6.493c-15.114 0-27.929 10.042-32.128 23.801-4.199-13.759-17.01-23.801-32.126-23.801-15.101 0-27.902 10.022-32.116 23.758-2.273-13.462-13.979-23.758-28.078-23.758-8.645 0-16.388 3.885-21.619 9.98-5.231-6.095-12.976-9.98-21.62-9.98C12.786 26.765 0 39.551 0 55.269v36.085h13.768V55.269c0-8.126 6.609-14.736 14.733-14.736 8.127 0 14.736 6.61 14.736 14.736v36.085h13.768V55.269c0-8.126 6.61-14.736 14.735-14.736 8.127 0 14.737 6.61 14.737 14.736v36.085h13.767V71.465c4.6 13.072 17.062 22.472 31.688 22.472a33.616 33.616 0 0 0 27.659-14.53l-11.332-7.819a19.842 19.842 0 0 1-16.327 8.58c-8.51 0-15.784-5.39-18.587-12.935h49.969c3.184 15.229 16.711 26.704 32.872 26.704 15.398 0 28.399-10.422 32.349-24.579 3.946 14.157 16.951 24.579 32.348 24.579a33.618 33.618 0 0 0 27.659-14.53l-11.332-7.819a19.846 19.846 0 0 1-16.329 8.58c-8.507 0-15.781-5.39-18.586-12.935h50.275v24.121h13.767V55.269c0-8.126 6.609-14.736 14.735-14.736 8.124 0 14.735 6.61 14.735 14.736v36.085h13.767V55.269c0-8.126 6.611-14.736 14.736-14.736 8.127 0 14.735 6.61 14.735 14.736v36.085h13.768V55.269c0-15.718-12.787-28.504-28.503-28.504M113.345 53.467c2.803-7.545 10.077-12.934 18.587-12.934 8.509 0 15.782 5.389 18.585 12.934h-37.172zm82.841 26.701c-10.928 0-19.818-8.891-19.818-19.817 0-10.93 8.891-19.818 19.818-19.818 10.927 0 19.818 8.888 19.818 19.818 0 10.926-8.892 19.817-19.818 19.817m46.108-26.701c2.805-7.545 10.079-12.934 18.586-12.934 8.512 0 15.785 5.389 18.586 12.934h-37.172zM406.373 73.125c-5.367 0-9.717 4.353-9.717 9.719 0 5.365 4.35 9.714 9.717 9.714 5.364 0 9.716-4.349 9.716-9.714 0-5.366-4.352-9.719-9.716-9.719"/></svg>