<?xml version="1.0" encoding="utf-8"?>
<!-- Generator: Adobe Illustrator 17.0.0, SVG Export Plug-In . SVG Version: 6.00 Build 0)  -->
<!DOCTYPE svg PUBLIC "-//W3C//DTD SVG 1.1//EN" "http://www.w3.org/Graphics/SVG/1.1/DTD/svg11.dtd">
<svg version="1.1" id="Isolation_Mode" xmlns="http://www.w3.org/2000/svg" xmlns:xlink="http://www.w3.org/1999/xlink" x="0px"
	 y="0px" width="710.659px" height="93.937px" viewBox="0 0 710.659 93.937" enable-background="new 0 0 710.659 93.937"
	 xml:space="preserve">
<polygon fill="#FFFFFF" points="458.259,40.04 466.927,52.65 467.052,52.65 475.72,40.04 475.72,59.065 477.348,59.065 
	477.348,37.161 475.813,37.161 467.021,50.117 458.227,37.161 456.693,37.161 456.693,59.065 458.259,59.065 "/>
<path fill="#FFFFFF" d="M496.843,56.436l-1.065-0.938c-1.313,1.408-3.003,2.503-5.476,2.503c-3.13,0-5.977-2.316-6.258-6.291h13.236
	c0.032-0.248,0.032-0.342,0.032-0.627c0-4.722-2.849-8.354-7.324-8.354c-4.318,0-7.571,3.693-7.571,8.325
	c0,5.039,3.63,8.387,7.822,8.387C493.307,59.442,495.215,58.189,496.843,56.436 M489.928,44.141c3.659,0,5.506,2.971,5.724,6.194
	h-11.607C484.325,46.8,486.766,44.141,489.928,44.141"/>
<polygon fill="#FFFFFF" points="521.375,59.065 523.253,59.065 516.462,50.022 522.846,43.107 520.905,43.107 511.769,53.275 
	511.769,43.107 510.235,43.107 510.235,53.275 501.097,43.107 499.157,43.107 505.51,50.022 498.751,59.065 500.628,59.065 
	506.511,51.084 510.235,55.153 510.235,59.065 511.769,59.065 511.769,55.153 515.492,51.117 "/>
<path fill="#FFFFFF" d="M526.101,59.066h14.551v4.504h1.25l0.315-5.88h-2.568V43.108h-10.7v3.378c0,5.321-0.939,8.886-2.347,11.204
	h-2.097v5.88h1.282L526.101,59.066z M530.418,47.362v-2.878h7.698V57.69h-9.825C529.543,55.561,530.418,51.618,530.418,47.362"/>
<path fill="#FFFFFF" d="M560.24,43.107h-1.69l-5.759,14.27l-6.633-14.27h-1.784l7.668,15.865c-1.191,2.783-2.286,3.753-3.945,3.753
	c-1.188,0-1.877-0.187-2.722-0.594l-0.531,1.348c1.063,0.468,1.94,0.686,3.16,0.686c2.284,0,3.911-1.186,5.319-4.537L560.24,43.107z
	"/>
<polygon fill="#FFFFFF" points="576.605,59.065 578.139,59.065 578.139,43.107 576.605,43.107 576.605,50.208 565.996,50.208 
	565.996,43.107 564.464,43.107 564.464,59.065 565.996,59.065 565.996,51.587 576.605,51.587 "/>
<path fill="#FFFFFF" d="M589.747,42.855c-2.189,0-3.91,0.564-5.663,1.378l0.563,1.346c1.473-0.752,3.066-1.283,5.008-1.283
	c3.285,0,5.258,1.658,5.258,4.882v0.687c-1.534-0.408-3.069-0.687-5.29-0.687c-4.129,0-6.977,1.876-6.977,5.194
	c0,3.378,2.879,5.069,6.165,5.069c3.033,0,5.006-1.503,6.103-3.036v2.66h1.501v-9.953c0-1.969-0.565-3.439-1.627-4.505
	C593.628,43.452,591.907,42.855,589.747,42.855 M594.943,53.089c0,2.91-2.786,4.913-6.04,4.913c-2.754,0-4.602-1.348-4.602-3.662
	c0-2.284,1.848-3.787,5.227-3.787c2.284,0,4.067,0.375,5.415,0.722V53.089z"/>
<path fill="#FFFFFF" d="M610.026,42.73c-3.161,0-5.196,1.847-6.574,3.942v-3.565h-1.531v20.965h1.531v-8.448
	c1.316,2.002,3.381,3.817,6.574,3.817c3.849,0,7.76-3.159,7.76-8.357C617.786,45.828,613.875,42.73,610.026,42.73 M609.869,57.97
	c-3.317,0-6.509-2.754-6.509-6.854c0-4.13,3.191-6.915,6.509-6.915c3.348,0,6.26,2.69,6.26,6.883
	C616.129,55.435,613.341,57.97,609.869,57.97"/>
<path fill="#FFFFFF" d="M629.708,42.73c-4.758,0-8.23,3.882-8.23,8.354c0,4.54,3.442,8.357,8.168,8.357
	c4.756,0,8.229-3.88,8.229-8.357C637.875,46.548,634.432,42.73,629.708,42.73 M629.708,58.002c-3.694,0-6.572-3.069-6.572-6.918
	c0-3.815,2.909-6.914,6.51-6.914c3.599,0,6.57,3.066,6.57,6.914C636.216,54.904,633.244,58.002,629.708,58.002"/>
<path fill="#FFFFFF" d="M654.647,43.107h-10.702v3.378c0,5.321-0.938,8.887-2.349,11.204h-2.095v5.881h1.283l0.312-4.505h14.553
	v4.505h1.251l0.314-5.881h-2.567V43.107z M653.114,57.689h-9.825c1.251-2.129,2.127-6.071,2.127-10.328v-2.878h7.698V57.689z"/>
<polygon fill="#FFFFFF" points="673.203,50.208 662.595,50.208 662.595,43.107 661.062,43.107 661.062,59.065 662.595,59.065 
	662.595,51.587 673.203,51.587 673.203,59.065 674.737,59.065 674.737,43.107 673.203,43.107 "/>
<path fill="#FFFFFF" d="M686.346,42.855c-2.19,0-3.912,0.564-5.664,1.378l0.565,1.346c1.47-0.752,3.065-1.283,5.006-1.283
	c3.284,0,5.257,1.658,5.257,4.882v0.687c-1.534-0.408-3.066-0.687-5.29-0.687c-4.13,0-6.977,1.876-6.977,5.194
	c0,3.378,2.878,5.069,6.165,5.069c3.036,0,5.007-1.503,6.102-3.036v2.66h1.502v-9.953c0-1.969-0.563-3.439-1.627-4.505
	C690.227,43.452,688.506,42.855,686.346,42.855 M691.541,53.089c0,2.91-2.785,4.913-6.041,4.913c-2.754,0-4.598-1.348-4.598-3.662
	c0-2.284,1.844-3.787,5.224-3.787c2.283,0,4.069,0.375,5.415,0.722V53.089z"/>
<path fill="#FFFFFF" d="M703.524,43.107c-3.661,0-5.851,1.939-5.851,4.755c0,2.66,2.065,4.382,4.599,4.851l-5.037,6.352h1.877
	l4.757-6.132h5.258v6.132h1.532V43.107H703.524z M709.127,51.555h-5.321c-2.565,0-4.476-1.376-4.476-3.599
	c0-2.096,1.629-3.473,4.413-3.473h5.384V51.555z"/>
<polygon fill="#FFFFFF" points="469.806,75.245 467.772,75.245 457.883,85.478 457.883,75.245 456.35,75.245 456.35,91.204 
	457.883,91.204 457.883,87.326 461.764,83.413 468.086,91.204 470.024,91.204 462.827,82.318 "/>
<path fill="#FFFFFF" d="M476.158,76.09c-0.062,12.986-1.566,13.925-3.692,13.925c-0.313,0-1.001-0.158-1.222-0.219l-0.281,1.408
	c0.438,0.125,1.252,0.25,1.753,0.25c2.941,0,4.881-1.19,4.913-14.395v-0.439h7.853v14.584h1.534v-15.96h-10.858V76.09z"/>
<polygon fill="#FFFFFF" points="494.369,89.171 494.369,75.245 492.836,75.245 492.836,91.205 494.369,91.205 505.197,77.277 
	505.197,91.205 506.731,91.205 506.731,75.245 505.197,75.245 "/>
<polygon fill="#FFFFFF" points="524.691,82.347 514.084,82.347 514.084,75.245 512.548,75.245 512.548,91.204 514.084,91.204 
	514.084,83.725 524.691,83.725 524.691,91.204 526.226,91.204 526.226,75.245 524.691,75.245 "/>
<polygon fill="#FFFFFF" points="533.578,89.171 533.578,75.245 532.045,75.245 532.045,91.205 533.578,91.205 544.405,77.277 
	544.405,91.205 545.937,91.205 545.937,75.245 544.405,75.245 "/>
<polygon fill="#FFFFFF" points="565.214,75.245 563.181,75.245 553.291,85.478 553.291,75.245 551.757,75.245 551.757,91.204 
	553.291,91.204 553.291,87.326 557.172,83.413 563.493,91.204 565.433,91.204 558.235,82.318 "/>
<path fill="#FFFFFF" d="M574.321,74.993c-2.191,0-3.912,0.564-5.664,1.379l0.562,1.344c1.472-0.751,3.067-1.282,5.007-1.282
	c3.287,0,5.258,1.659,5.258,4.882v0.688c-1.533-0.407-3.068-0.688-5.289-0.688c-4.129,0-6.976,1.877-6.976,5.194
	c0,3.381,2.878,5.071,6.163,5.071c3.033,0,5.008-1.503,6.102-3.037v2.661h1.502v-9.951c0-1.971-0.563-3.443-1.626-4.506
	C578.199,75.587,576.48,74.993,574.321,74.993 M579.515,85.228c0,2.91-2.784,4.913-6.039,4.913c-2.753,0-4.601-1.345-4.601-3.663
	c0-2.282,1.848-3.785,5.227-3.785c2.284,0,4.067,0.375,5.413,0.721V85.228z"/>
<path fill="#FFFFFF" d="M364.31,26.765c-8.645,0-16.388,3.885-21.621,9.98c-5.229-6.095-12.974-9.98-21.617-9.98
	c-14.098,0-25.805,10.296-28.075,23.758c-4.212-13.736-17.016-23.758-32.116-23.758c-14.05,0-26.107,8.679-31.11,20.952v-14.65
	c0-18.495-15.023-33.025-33.506-33.067h-8.355v13.767h8.393c10.873,0.063,19.703,8.409,19.703,19.3v0.191
	c-5.56-4.078-12.41-6.493-19.818-6.493c-15.114,0-27.929,10.042-32.128,23.801c-4.199-13.759-17.01-23.801-32.126-23.801
	c-15.101,0-27.902,10.022-32.116,23.758C97.545,37.061,85.839,26.765,71.74,26.765c-8.645,0-16.388,3.885-21.619,9.98
	c-5.231-6.095-12.976-9.98-21.62-9.98C12.786,26.765,0,39.551,0,55.269v36.085h13.768V55.269c0-8.126,6.609-14.736,14.733-14.736
	c8.127,0,14.736,6.61,14.736,14.736v36.085h13.768V55.269c0-8.126,6.61-14.736,14.735-14.736c8.127,0,14.737,6.61,14.737,14.736
	v36.085h13.767V71.465c4.6,13.072,17.062,22.472,31.688,22.472c11.041,0,21.382-5.435,27.659-14.53l-11.332-7.819
	c-3.706,5.372-9.812,8.58-16.327,8.58c-8.51,0-15.784-5.39-18.587-12.935h49.969c3.184,15.229,16.711,26.704,32.872,26.704
	c15.398,0,28.399-10.422,32.349-24.579c3.946,14.157,16.951,24.579,32.348,24.579c11.041,0,21.381-5.435,27.659-14.53l-11.332-7.819
	c-3.708,5.372-9.812,8.58-16.329,8.58c-8.507,0-15.781-5.39-18.586-12.935h50.275v24.121h13.767V55.269
	c0-8.126,6.609-14.736,14.735-14.736c8.124,0,14.735,6.61,14.735,14.736v36.085h13.767V55.269c0-8.126,6.611-14.736,14.736-14.736
	c8.127,0,14.735,6.61,14.735,14.736v36.085h13.768V55.269C392.813,39.551,380.026,26.765,364.31,26.765 M113.345,53.467
	c2.803-7.545,10.077-12.934,18.587-12.934c8.509,0,15.782,5.389,18.585,12.934H113.345z M196.186,80.168
	c-10.928,0-19.818-8.891-19.818-19.817c0-10.93,8.891-19.818,19.818-19.818c10.927,0,19.818,8.888,19.818,19.818
	C216.004,71.277,207.112,80.168,196.186,80.168 M242.294,53.467c2.805-7.545,10.079-12.934,18.586-12.934
	c8.512,0,15.785,5.389,18.586,12.934H242.294z"/>
<path fill="#FFFFFF" d="M406.373,73.125c-5.367,0-9.717,4.353-9.717,9.719c0,5.365,4.35,9.714,9.717,9.714
	c5.364,0,9.716-4.349,9.716-9.714C416.089,77.478,411.737,73.125,406.373,73.125"/>
</svg>
